{"title":"Terminator Genisys {2015} HC HD 720P X264 AC3-MRG","uid":12208118,"size":951132612,"categoryP":"video","categoryS":"hd___movies","magnet":"?xt=urn:btih:e2033ee9b5dae3182e87277f3e310c925c00a936&amp;dn=Terminator+Genisys+%7B2015%7D+HC+HD+720P+X264+AC3-MRG&amp;tr=udp%3A%2F%2Ftracker.openbittorrent.com%3A80&amp;tr=udp%3A%2F%2Fopen.demonii.com%3A1337&amp;tr=udp%3A%2F%2Ftracker.coppersurfer.tk%3A6969&amp;tr=udp%3A%2F%2Fexodus.desync.com%3A6969","seeders":18,"leechers":7,"uploader":"SaM","files":5,"time":1439034483,"description":"Terminator Genisys {2015} HC HD 720P X264 AC3-MRG.mkv\n\n\nSource : Showscen,,ty\nFormat : Matroska\nFormat version : Version 4 / Version 2\nFile size : 907 MiB\nDuration : 2h 0mn\nOverall bit rate : 1 054 Kbps\n\nVideo\nID : 1\nFormat : AVC\nFormat/Info : Advanced Video Codec\nFormat profile : Main@L4\nFormat settings, CABAC : Yes\nFormat settings, ReFrames : 4 frames\nCodec ID : V_MPEG4/ISO/AVC\nDuration : 2h 0mn\nBit rate : 809 Kbps\nWidth : 1 280 pixels\nHeight : 536 pixels\nDisplay aspect ratio : 2.40:1\nFrame rate mode : Constant\nFrame rate : 30.000 fps\nColor space : YUV\nChroma subsampling : 4:2:0\nBit depth : 8 bits\nScan type : Progressive\nBits/(Pixel*Frame) : 0.039\nStream size : 696 MiB (77%)\nDefault : Yes\nForced : No\nColor range : Limited\nColor primaries : BT.709\nTransfer characteristics : BT.709\nMatrix coefficients : BT.709\n\nAudio\nID : 2\nFormat : AC-3\nFormat/Info : Audio Coding 3\nMode extension : CM (complete main)\nFormat settings, Endianness : Big\nCodec ID : A_AC3\nDuration : 2h 0mn\nBit rate mode : Constant\nBit rate : 224 Kbps\nChannel(s) : 2 channels\nChannel positions : Front: L R\nSampling rate : 48.0 KHz\nCompression mode : Lossy\nDelay relative to video : 30ms\nStream size : 193 MiB (21%)\nLanguage : English\nDefault : Yes\nForced : No\n &lt;a href=&quot;\nhttp://extraimago.com/image/SZv&quot; rel=&quot;nofollow&quot; target=&quot;_NEW&quot;&gt;\nhttp://extraimago.com/image/SZv&lt;/a&gt;","torrent":{"xt":"urn:btih:e2033ee9b5dae3182e87277f3e310c925c00a936","amp;dn":"Terminator+Genisys+%7B2015%7D+HC+HD+720P+X264+AC3-MRG","amp;tr":["udp%3A%2F%2Ftracker.openbittorrent.com%3A80","udp%3A%2F%2Fopen.demonii.com%3A1337","udp%3A%2F%2Ftracker.coppersurfer.tk%3A6969","udp%3A%2F%2Fexodus.desync.com%3A6969"],"infoHash":"e2033ee9b5dae3182e87277f3e310c925c00a936","infoHashBuffer":{"type":"Buffer","data":[226,3,62,233,181,218,227,24,46,135,39,127,62,49,12,146,92,0,169,54]},"announce":[],"urlList":[]}}